Coordinates
version=1
nRows=5
nColumns=40
inDegrees=yes

Units are S.I. units (second, meters, Newtons, ...)
If the header above contains a line with 'inDegrees', this indicates whether rotational values are in degrees (yes) or radians (no).

endheader
time	pelvis_tilt	pelvis_list	pelvis_rotation	pelvis_tx	pelvis_ty	pelvis_tz	hip_flexion_r	hip_adduction_r	hip_rotation_r	knee_angle_r	knee_angle_r_beta	ankle_angle_r	subtalar_angle_r	mtp_angle_r	hip_flexion_l	hip_adduction_l	hip_rotation_l	knee_angle_l	knee_angle_l_beta	ankle_angle_l	subtalar_angle_l	mtp_angle_l	lumbar_extension	lumbar_bending	lumbar_rotation	arm_flex_r	arm_add_r	arm_rot_r	elbow_flex_r	pro_sup_r	wrist_flex_r	wrist_dev_r	arm_flex_l	arm_add_l	arm_rot_l	elbow_flex_l	pro_sup_l	wrist_flex_l	wrist_dev_l
      2.50000000	      4.26564941	     -4.91259515	     -0.03085802	     -0.31012174	      1.05738315	     -1.05416530	     30.39324775	     -0.71285639	     -0.14753832	      3.96134183	      0.06913846	     -0.74439215	      0.00000000	      0.00000000	      5.08859265	     -2.44236477	     -5.10145509	     20.04295098	      0.34981549	     -4.01019906	      0.00000000	      0.00000000	     -6.25478263	     -0.43600483	      1.74748719	     89.89448185	    -21.31453700	     39.58249546	     33.46206676	     82.97870958	      0.00000000	      0.00000000	     89.81014318	    -38.72488358	     36.72402390	     40.93226130	     86.60916033	      0.00000000	      0.00000000
      2.50500000	      4.24699847	     -4.98886241	      0.00953115	     -0.31011483	      1.05741062	     -1.05425471	     30.59352465	     -0.64370254	     -0.44260538	      3.89014948	      0.06789592	     -0.64496474	      0.00000000	      0.00000000	      5.14677173	     -2.50942798	     -5.02401453	     20.11025316	      0.35099013	     -3.99405543	      0.00000000	      0.00000000	     -6.24117566	     -0.35429500	      1.71378257	     89.89472155	    -21.30687496	     39.44639171	     33.39718400	     83.64211632	      0.00000000	      0.00000000	     89.81077364	    -38.78463964	     36.74144076	     40.93517483	     86.56997997	      0.00000000	      0.00000000
      2.51000000	      4.23387458	     -5.03990670	      0.01798819	     -0.31005711	      1.05742334	     -1.05430062	     30.79640354	     -0.58242109	     -0.82518316	      3.81977366	      0.06666763	     -0.57444655	      0.00000000	      0.00000000	      5.17799125	     -2.54201454	     -4.97460669	     20.14007512	      0.35151062	     -3.97171203	      0.00000000	      0.00000000	     -6.23084935	     -0.30111874	      1.74129001	     89.89524709	    -21.30989635	     39.36860847	     33.35407259	     83.60280590	      0.00000000	      0.00000000	     89.81119272	    -38.78702879	     36.70699163	     40.86626806	     86.56853802	      0.00000000	      0.00000000
      2.51500000	      4.24085976	     -5.08896759	      0.03272247	     -0.30998999	      1.05739848	     -1.05436993	     30.98003495	     -0.51902991	     -1.16082909	      3.78365339	      0.06603721	     -0.34667212	      0.00000000	      0.00000000	      5.20569695	     -2.57035090	     -4.88912061	     20.20754878	      0.35268826	     -3.89403025	      0.00000000	      0.00000000	     -6.24302604	     -0.24300710	      1.76645615	     89.89564595	    -21.33534651	     39.23991629	     33.37339624	     83.72412230	      0.00000000	      0.00000000	     89.81086228	    -38.79840680	     36.64778864	     40.87150281	     86.51049304	      0.00000000	      0.00000000
      2.52000000	      4.26312116	     -5.14051075	      0.02195532	     -0.30989745	      1.05746838	     -1.05441222	     31.13326969	     -0.45407472	     -1.42398025	      3.71605067	      0.06485732	     -0.38331958	      0.00000000	      0.00000000	      5.18422601	     -2.60259976	     -4.86744712	     20.22336896	      0.35296437	     -3.93323340	      0.00000000	      0.00000000	     -6.27663914	     -0.18743953	      1.80145721	     89.89578245	    -21.36276948	     39.24431662	     33.43250643	     83.20656927	      0.00000000	      0.00000000	     89.81074496	    -38.78039513	     36.51017307	     40.76860519	     86.64476998	      0.00000000	      0.00000000
